<?xml version="1.0" encoding="UTF-8" standalone="no"?>
<!-- Created with Inkscape (http://www.inkscape.org/) -->

<svg
   width="20mm"
   height="20mm"
   viewBox="0 0 20 20"
   version="1.1"
   id="svg1"
   inkscape:export-filename="planet.png"
   inkscape:export-xdpi="96"
   inkscape:export-ydpi="96"
   inkscape:version="1.4 (e7c3feb100, 2024-10-09)"
   sodipodi:docname="planet.svg.2024_12_22_14_25_12.0.svg"
   xmlns:inkscape="http://www.inkscape.org/namespaces/inkscape"
   xmlns:sodipodi="http://sodipodi.sourceforge.net/DTD/sodipodi-0.dtd"
   xmlns="http://www.w3.org/2000/svg"
   xmlns:svg="http://www.w3.org/2000/svg">
  <sodipodi:namedview
     id="namedview1"
     pagecolor="#ffffff"
     bordercolor="#000000"
     borderopacity="0.25"
     inkscape:showpageshadow="2"
     inkscape:pageopacity="0.0"
     inkscape:pagecheckerboard="0"
     inkscape:deskcolor="#d1d1d1"
     inkscape:document-units="mm"
     inkscape:zoom="3.346219"
     inkscape:cx="22.114512"
     inkscape:cy="36.608483"
     inkscape:window-width="1918"
     inkscape:window-height="1048"
     inkscape:window-x="0"
     inkscape:window-y="30"
     inkscape:window-maximized="1"
     inkscape:current-layer="layer1" />
  <defs
     id="defs1">
    <filter
       style="color-interpolation-filters:sRGB;"
       inkscape:label="Out of Focus"
       id="filter55"
       x="-3.911865"
       y="-4.0524362"
       width="8.8237301"
       height="9.1048723">
      <feFlood
         flood-opacity="0.0627451"
         flood-color="rgb(0,0,0)"
         result="flood"
         id="feFlood53" />
      <feColorMatrix
         in="SourceGraphic"
         values="1 0 0 0 0 0 1 0 0 0 0 0 1 0 0 -0.2125 -0.7154 -0.0721 1 0 "
         result="colormatrix1"
         id="feColorMatrix53" />
      <feGaussianBlur
         in="colormatrix1"
         stdDeviation="29.4701 25.0593"
         result="blur"
         id="feGaussianBlur53" />
      <feColorMatrix
         in="blur"
         values="1 0 0 0 0 0 1 0 0 0 0 0 1 0 0 0 0 0 65.9089 -0 "
         result="colormatrix2"
         id="feColorMatrix54" />
      <feBlend
         in="colormatrix2"
         in2="flood"
         mode="normal"
         result="blend"
         id="feBlend54" />
      <feComposite
         in="blend"
         in2="blend"
         operator="arithmetic"
         k2="0.802028"
         result="composite1"
         id="feComposite54" />
      <feComposite
         in2="SourceGraphic"
         operator="in"
         id="feComposite55" />
    </filter>
    <filter
       inkscape:label="Swirl"
       inkscape:menu="Distort"
       inkscape:menu-tooltip="Paint objects with a transparent turbulence which wraps around color edges"
       height="2.2249431"
       y="-0.61247155"
       width="2.072937"
       x="-0.53646849"
       style="color-interpolation-filters:sRGB;"
       id="filter76">
      <feGaussianBlur
         stdDeviation="3"
         result="result10"
         id="feGaussianBlur73" />
      <feBlend
         in2="result10"
         mode="normal"
         in="result10"
         result="fbSourceGraphic"
         id="feBlend73" />
      <feGaussianBlur
         stdDeviation="3"
         result="result8"
         in="fbSourceGraphic"
         id="feGaussianBlur74" />
      <feTurbulence
         seed="0"
         result="result7"
         type="fractalNoise"
         numOctaves="1"
         baseFrequency="0.2"
         id="feTurbulence74" />
      <feComposite
         in2="result8"
         result="result6"
         operator="in"
         in="result8"
         id="feComposite74" />
      <feDisplacementMap
         in2="result6"
         in="result7"
         xChannelSelector="R"
         yChannelSelector="G"
         scale="50"
         result="result4"
         id="feDisplacementMap74" />
      <feComposite
         in2="result4"
         result="result2"
         operator="arithmetic"
         in="result8"
         k1="1"
         k3="1"
         id="feComposite75" />
      <feComposite
         in2="result2"
         result="fbSourceGraphic"
         in="fbSourceGraphic"
         operator="in"
         id="feComposite76" />
      <feDisplacementMap
         in2="result4"
         yChannelSelector="G"
         scale="50"
         xChannelSelector="R"
         id="feDisplacementMap76" />
    </filter>
    <filter
       inkscape:label="Swirl"
       inkscape:menu="Distort"
       inkscape:menu-tooltip="Paint objects with a transparent turbulence which wraps around color edges"
       height="2.2249431"
       y="-0.61247155"
       width="2.072937"
       x="-0.53646849"
       style="color-interpolation-filters:sRGB"
       id="filter76-2">
      <feGaussianBlur
         stdDeviation="3"
         result="result10"
         id="feGaussianBlur73-7" />
      <feBlend
         in2="result10"
         mode="normal"
         in="result10"
         result="fbSourceGraphic"
         id="feBlend73-0" />
      <feGaussianBlur
         stdDeviation="3"
         result="result8"
         in="fbSourceGraphic"
         id="feGaussianBlur74-9" />
      <feTurbulence
         seed="0"
         result="result7"
         type="fractalNoise"
         numOctaves="1"
         baseFrequency="0.2"
         id="feTurbulence74-3" />
      <feComposite
         in2="result8"
         result="result6"
         operator="in"
         in="result8"
         id="feComposite74-6" />
      <feDisplacementMap
         in2="result6"
         in="result7"
         xChannelSelector="R"
         yChannelSelector="G"
         scale="50"
         result="result4"
         id="feDisplacementMap74-0" />
      <feComposite
         in2="result4"
         result="result2"
         operator="arithmetic"
         in="result8"
         k1="1"
         k3="1"
         id="feComposite75-6"
         k2="0"
         k4="0" />
      <feComposite
         in2="result2"
         result="fbSourceGraphic"
         in="fbSourceGraphic"
         operator="in"
         id="feComposite76-2" />
      <feDisplacementMap
         in2="result4"
         yChannelSelector="G"
         scale="50"
         xChannelSelector="R"
         id="feDisplacementMap76-6" />
    </filter>
    <filter
       inkscape:label="Swirl"
       inkscape:menu="Distort"
       inkscape:menu-tooltip="Paint objects with a transparent turbulence which wraps around color edges"
       height="2.2249431"
       y="-0.61247155"
       width="2.072937"
       x="-0.53646849"
       style="color-interpolation-filters:sRGB"
       id="filter76-2-2">
      <feGaussianBlur
         stdDeviation="3"
         result="result10"
         id="feGaussianBlur73-7-0" />
      <feBlend
         in2="result10"
         mode="normal"
         in="result10"
         result="fbSourceGraphic"
         id="feBlend73-0-2" />
      <feGaussianBlur
         stdDeviation="3"
         result="result8"
         in="fbSourceGraphic"
         id="feGaussianBlur74-9-3" />
      <feTurbulence
         seed="0"
         result="result7"
         type="fractalNoise"
         numOctaves="1"
         baseFrequency="0.2"
         id="feTurbulence74-3-7" />
      <feComposite
         in2="result8"
         result="result6"
         operator="in"
         in="result8"
         id="feComposite74-6-5" />
      <feDisplacementMap
         in2="result6"
         in="result7"
         xChannelSelector="R"
         yChannelSelector="G"
         scale="50"
         result="result4"
         id="feDisplacementMap74-0-9" />
      <feComposite
         in2="result4"
         result="result2"
         operator="arithmetic"
         in="result8"
         k1="1"
         k3="1"
         id="feComposite75-6-2"
         k2="0"
         k4="0" />
      <feComposite
         in2="result2"
         result="fbSourceGraphic"
         in="fbSourceGraphic"
         operator="in"
         id="feComposite76-2-2" />
      <feDisplacementMap
         in2="result4"
         yChannelSelector="G"
         scale="50"
         xChannelSelector="R"
         id="feDisplacementMap76-6-8" />
    </filter>
  </defs>
  <g
     inkscape:label="Layer 1"
     inkscape:groupmode="layer"
     id="layer1">
    <circle
       style="fill:#808080;stroke:none;stroke-width:0.967394"
       id="path1"
       cx="10"
       cy="10"
       r="9.9014978" />
    <g
       id="g10"
       style="filter:url(#filter55)">
      <ellipse
         style="fill:#000000;stroke:none;stroke-width:0.264583"
         id="path2"
         cx="9.2285585"
         cy="4.8591185"
         rx="1.2053627"
         ry="1.3937006" />
      <ellipse
         style="fill:#000000;stroke:none;stroke-width:0.264583"
         id="path3"
         cx="13.899339"
         cy="5.8949766"
         rx="0.60268134"
         ry="0.62151515" />
      <ellipse
         style="fill:#000000;stroke:none;stroke-width:0.264583"
         id="path4"
         cx="13.40966"
         cy="17.571928"
         rx="1.1300275"
         ry="0.73451787" />
      <ellipse
         style="fill:#000000;stroke:none;stroke-width:0.264583"
         id="path5"
         cx="2.2223876"
         cy="12.110128"
         rx="0.97935718"
         ry="0.73451787" />
      <ellipse
         style="fill:#000000;stroke:none;stroke-width:0.264583"
         id="path6"
         cx="3.8985949"
         cy="5.9138112"
         rx="0.998191"
         ry="0.94168961" />
      <ellipse
         style="fill:#000000;stroke:none;stroke-width:0.264583"
         id="path7"
         cx="9.6429014"
         cy="10.772929"
         rx="0.90402204"
         ry="0.67801654" />
      <ellipse
         style="fill:#000000;stroke:none;stroke-width:0.264583"
         id="path8"
         cx="5.518301"
         cy="15.519045"
         rx="1.1865289"
         ry="1.0923599" />
      <ellipse
         style="fill:#000000;stroke:none;stroke-width:0.264583"
         id="path9"
         cx="18.664288"
         cy="10.019578"
         rx="0.65918273"
         ry="0.79101926" />
      <ellipse
         style="fill:#000000;stroke:none;stroke-width:0.264583"
         id="path10"
         cx="13.127153"
         cy="14.144177"
         rx="1.450202"
         ry="0.62151515" />
    </g>
    <path
       style="mix-blend-mode:color-burn;filter:url(#filter76)"
       d="M 13.238281,-1.7636719 C 10.664878,-2.0246254 10.300266,2.4224417 8.2552447,-0.24527871 4.7364582,-2.1591769 3.8816182,2.6918202 3.1176363,5.0416588 3.231039,7.0564045 0.06780687,7.1111618 0.01139891,9.5624205 -0.94367417,11.822366 0.06063155,14.323269 1.0313274,16.202275 c -0.71358017,2.705787 1.4550712,5.052538 4.0428913,5.459834 1.9852437,0.420949 4.8895919,-0.986629 2.9609344,-3.152331 2.3369239,-0.666901 3.9814639,2.417455 6.4160159,2.730468 1.769717,1.078066 3.369094,-0.04042 3.86228,-1.470718 1.508024,-0.946568 6.269684,-2.728649 3.233425,-4.624986 C 22.742557,13.152446 19.04254,10.12653 17.64378,11.344109 17.423366,13.01088 14.211439,15.82011 13.983514,12.676384 13.465215,10.922955 11.01412,8.3795217 11.092121,7.6646098 13.895396,7.2126579 17.109876,7.7222835 19.583984,6.1621094 19.216028,8.712157 23.499152,10.298227 23.011272,6.98395 21.766538,4.8887392 20.112375,2.8300897 18.277622,1.3641192 16.848074,0.05888214 15.257831,-1.5633616 13.238281,-1.7636719 Z M 13.25,-1.5 c 1.632123,0.1330464 4.908084,2.48261788 4.492203,3.2314495 C 15.389615,1.7085909 12.084851,0.92644007 11.110099,4.0196049 10.086191,5.2894321 11.003633,8.6764405 8.7861901,6.6983067 7.1371882,5.685361 9.3725775,2.7446128 10.015624,1.1835944 10.519349,-0.15769316 11.752286,-1.4125151 13.25,-1.5 Z M 7.0625,-0.44921875 C 8.3998711,-0.05999044 10.499575,1.5100079 7.8378321,0.9186928 6.2643404,0.23105086 3.3908575,4.0679372 4.6649297,1.1899396 5.0709773,0.29421086 6.0089251,-0.5983314 7.0625,-0.44921875 Z M 7.8886719,1.1835937 C 11.360434,0.57030528 7.701233,3.9420454 7.8974916,5.7753429 7.6272441,6.6223491 4.9977468,5.4351856 4.4947977,5.4715508 3.2877843,2.8330925 5.4078393,1.2696305 7.8886719,1.1835937 Z M 14.921875,1.8125 c 1.596289,0.3061922 0.466531,0.3911277 0.236324,1.0488281 2.001019,-1.6617505 4.43285,1.6155076 4.093723,3.2625139 C 16.562079,7.3801969 13.417472,7.0204331 10.52734,7.4628906 10.657368,5.0431101 11.86245,1.4333051 14.921875,1.8125 Z m 3.230469,0.1425781 c 1.676915,-0.196649 2.865388,4.5306672 1.333242,3.2126898 0.229455,-1.4947394 -3.917189,-3.418027 -1.333242,-3.2126898 z m 1.416015,0.8125 c 0.146739,-0.035508 0.289229,0.5035297 0,0 z M 3.9472656,3.6972656 C 4.5131651,4.6868682 3.5663218,7.500223 3.296875,5.4492187 3.4175785,4.8334188 3.6723508,4.2571071 3.9472656,3.6972656 Z M 20.4375,4.0976562 c 1.900275,0.786537 3.743508,5.6500643 0.302734,4.2089844 C 19.23731,6.441501 20.550524,5.8796666 20.4375,4.0976562 Z M 4.9667969,5.9375 C 7.609569,5.3471476 8.5329638,8.1852215 5.7940408,8.7553708 4.592426,10.490686 4.3832326,5.9755532 4.9667969,5.9375 Z M 4.1464844,6.2304687 C 4.5649612,7.3815341 4.9219281,11.636554 3.5468472,9.064889 3.4913136,8.1622658 2.599486,6.2365827 4.1464844,6.2304687 Z M 7.9453125,6.625 C 9.0974777,7.0690297 10.768622,7.8096996 8.5266488,7.8199905 6.9400887,8.4138445 7.7381933,7.7533053 7.9453125,6.625 Z M 3.0214844,6.63281 C 3.0934506,8.9365783 4.1741616,10.842618 2.1601478,12.588397 1.3055982,13.829916 1.2166457,17.055996 0.3298366,13.996914 -0.63266974,11.693632 0.08956207,8.8151468 1.7988281,7.0703125 2.1709563,6.8342725 2.6186837,6.7923938 3.0214844,6.63281 Z m 7.2265626,1.15625 c -0.167383,2.755094 0.674374,6.056433 3.232422,7.490235 -2.035613,1.385656 -4.8135071,4.022532 -6.2649165,0.527829 C 4.8637978,13.832377 6.7523024,11.241531 7.2773437,8.9140625 7.4382882,7.7931348 9.3650114,8.074812 10.248047,7.78906 Z m 0.275391,0.1953125 c 1.923432,1.753361 2.985721,4.2486975 3.998046,6.6035155 -2.537017,1.191296 -3.872153,-3.313704 -3.999897,-5.4275696 -0.02066,-0.3916517 -0.01808,-0.7843331 0.0019,-1.1759459 z M 7.1289062,8.4785156 C 6.6387125,9.7955131 5.8195385,14.566558 5.3123656,10.954395 4.4520451,9.3855342 5.8884775,8.9513716 7.1289062,8.4785156 Z m -2.34375,1.3320313 c 0.230433,1.0405981 1.4077246,5.1199781 0.064405,2.5630191 -0.1616148,-0.880574 -1.3152124,-2.0163 -0.064405,-2.5630191 z M 3.78125,10.732422 c 0.6954089,1.771843 2.3645572,3.451654 0.2072461,4.792642 C 2.3062933,18.524378 0.37680175,14.42052 2.3562243,12.772756 2.7453883,12.037799 3.224329,11.350157 3.78125,10.732422 Z m 14.560547,0.480469 c 1.561147,0.08155 4.272668,2.992004 2.658203,3.554687 -2.115378,-2.163427 -2.247963,1.901973 -3.226563,2.136672 -2.087195,-0.02388 -4.187099,-2.39387 -1.351991,-3.357715 1.190943,-0.43412 1.343438,-2.041686 1.920351,-2.333644 z M 5.7304687,13.496094 c 0.8030335,1.151684 -0.48011,0.329164 0,0 z m -0.2128906,0.548828 c 0.955482,1.16117 1.7181348,3.133492 1.9902344,4.300777 C 5.7196631,17.887356 3.5694389,15.394218 5.5175781,14.044922 Z m 14.3945309,0.388672 c 3.80225,0.586491 -2.215669,4.338378 -1.115234,1.285109 0.01392,-0.629354 0.454154,-1.232958 1.115234,-1.285109 z m -5.294921,0.408203 c 1.635777,2.034133 -1.910554,0.426699 0,0 z m 6.851562,0.570312 c 2.612131,1.822834 -2.130834,3.266605 -3.429688,4.146485 0.309061,-1.720684 0.570346,-2.606345 2.41493,-2.827946 0.559089,-0.244961 1.006792,-0.673949 1.014758,-1.318539 z m -7.771484,0.04297 c 2.343795,0.450162 2.019882,4.599446 3.894239,4.75355 -1.004423,2.641946 -4.618392,0.04792 -6.292906,-0.849481 -1.081826,-0.680329 -2.6142097,-1.484385 -0.531638,-1.994399 1.001597,-0.597773 1.955024,-1.271028 2.930305,-1.90967 z m -9.3671879,0.0332 c 0.1881591,2.888052 5.0807048,2.576667 3.7304688,5.359377 -2.184532,1.241595 -5.2467178,0.33793 -6.4702686,-1.774913 -0.5221471,-1.505639 -0.83985276,-3.691949 1.11445,-2.19871 0.9268868,0.127508 1.350351,-0.64752 1.6253498,-1.385754 z m 2.4238281,0.05469 c 0.5582534,0.966476 3.3444358,3.407866 1.0268671,2.38557 C 7.4317668,17.13626 7.0915244,16.340156 6.7539062,15.542969 Z m 8.6953128,0.757812 c 1.973743,0.681773 3.612002,0.997128 2.298828,3.333939 -1.624104,0.641483 -1.669104,-2.447607 -2.298828,-3.333939 z M 6.2519531,-0.27539063 c -3.7775392,0.054503 -6.99844273,2.80784483 -9.1136999,5.72017333 -2.0758873,2.0554677 -0.1440892,4.6514133 0.6597844,6.2553303 -1.3455462,2.102452 -1.4388037,5.747363 1.43300179,6.554469 3.65556011,1.317199 7.64651741,1.58958 11.49837361,1.38562 2.500117,-0.08949 5.572976,-2.435177 4.227618,-5.173405 1.62253,2.618762 4.056373,0.191263 2.962469,-2.14403 C 16.391289,9.9476892 21.932152,11.429664 21.388215,8.5871363 19.328557,6.4723898 15.268147,8.9107028 13.889762,6.0740977 11.914957,3.416908 9.9664282,-0.04947919 6.2519531,-0.27539063 Z m -0.025391,0.26367188 C 9.97701,0.27117263 11.905137,3.879592 13.909054,6.5683593 15.938268,8.2094693 8.8872272,6.4722008 12.627227,7.4510076 14.666558,6.8034786 17.010564,9.8754265 16.66017,10.761119 14.077064,10.982361 11.790436,10.66561 9.7558185,9.1747989 6.4950776,8.7079583 3.0924315,10.00733 -0.0859375,8.9355469 1.67279,8.1887648 3.3848547,4.5820208 0.1622567,4.9787546 -2.0590475,5.8161025 -0.72041121,8.4974203 -0.94306307,9.5054531 -2.2782699,13.158389 -4.886901,7.0561015 -2.6387023,5.5891772 -0.59709259,2.7801629 2.5714389,0.03696932 6.2265621,-0.01171875 Z M 0.50976562,5.1679687 C 4.0637255,5.0203057 -1.0193824,11.002744 -0.96166254,7.5018546 -0.97762028,6.5444423 -0.52122836,5.3902908 0.50976562,5.1679687 Z M -0.28515625,9.140625 C 3.1802958,10.463408 6.9904481,8.6364309 10.5,9.6699219 13.189599,11.361332 8.2744003,10.307639 7.0812361,10.544794 4.3234515,10.476571 1.5658589,10.37884 -1.1933594,10.37692 -0.99142926,9.8986135 -0.61292729,9.5313254 -0.28515625,9.140625 Z m -0.82226565,1.501953 c 4.3494456,0.03145 8.6964841,0.192088 13.0449219,0.26951 1.49344,0.970606 1.743652,1.826126 -0.29463,2.121222 -2.1057812,1.640162 -4.9784906,1.62231 -7.5400701,1.706706 -2.234067,-0.247751 -4.64756639,-1.833462 -5.2102218,-4.097438 z m 13.4609379,0.287109 c 2.048696,0.464796 5.803641,-1.0823854 5.407088,2.252631 0.99291,3.29632 -3.374097,2.153924 -3.031641,-0.03011 -0.779538,-0.748693 -1.540905,-1.308472 -2.375447,-2.222517 z m -14.1777347,0.609375 c 2.19701833,1.989403 4.5857566,4.054916 7.6299272,4.532645 2.9803492,0.2448 4.9838985,-3.34753 7.9970255,-2.327564 2.514654,1.448587 0.656385,4.931412 -1.705078,5.326171 -3.4744939,0.826606 -7.1360674,0.243807 -10.602464,-0.391981 -2.28131872,-0.330558 -5.0766646,-1.775202 -4.2948106,-4.562905 0.168366,-0.908722 0.5651381,-1.755458 0.9753999,-2.576366 z m 14.9160157,1.160156 c 1.121175,0.277344 1.228721,1.27269 -0.129234,0.576 -1.539242,0.212849 -2.286135,0.448936 -0.322513,-0.415448 z m 0.783203,0.07422 c 1.023668,0.232574 0.960364,2.026773 0,0 z m -3.9726562,1.470703 c -1.5703465,1.835397 -5.696819,1.777202 -6.4406214,0.6943 2.1582221,0.218922 4.3532358,-0.154904 6.4406214,-0.6943 z M 2.4121094,14.519531 2.8984375,14.75 Z M 0.66210937,0.76367187 C 1.8156669,2.809459 5.6804756,2.8986233 8.0071715,2.1290605 10.443636,1.3041413 13.096619,0.52616418 15.494141,1.8964839 17.093337,2.3346322 17.847317,3.690181 17.248045,4.9101596 19.073032,2.6131031 15.393845,1.5044376 13.635008,0.99814532 10.763923,0.29211861 8.0876306,2.3998764 5.2001107,2.3147649 3.5590452,2.3914671 1.9021074,1.8516306 0.66210937,0.76367187 Z M 11.240234,0.50976562 C 8.6782809,0.73616954 7.1097473,3.4557959 6.7091333,5.7669316 5.0802414,6.4259374 1.4918068,8.9892328 3.90625,11.095703 c -0.1534652,0.887359 -1.4604151,3.370298 0.7556909,4.172386 1.8043315,1.774756 4.1467999,1.093082 5.6326151,-0.2734 1.710786,0.432899 4.670851,-0.889498 5.337982,-1.027315 -0.385632,1.086444 -2.767345,3.273855 -0.533195,1.437342 1.503722,-2.323188 2.963084,-4.878296 1.678035,-7.514091 C 15.416494,5.3889379 13.169909,7.58435 13.642578,9.6660156 12.831332,10.468399 8.9958888,9.3122473 8.8007813,8.8007813 10.570908,7.4510907 13.485147,7.5787311 14.581361,5.5169624 15.63666,3.1595259 13.937511,0.27368501 11.240234,0.50976562 Z m -0.002,0.265625 C 14.115948,0.4177585 15.653229,4.2111434 13.837839,6.2265625 11.831391,6.8446122 9.5364121,8.692617 7.7001649,8.4761867 6.2981485,7.6426181 11.654875,6.1270376 8.5057062,5.8546161 5.2786821,6.7343175 8.278515,2.2527123 9.5625,1.3183594 10.090256,1.0805478 10.643425,0.76748115 11.238234,0.77539062 Z M 9.3144531,6.2675781 C 8.4554692,7.6754847 5.7924648,8.2236949 7.1810745,6.2555449 7.8818842,6.1216209 8.6214486,6.0389063 9.3144531,6.2675781 Z M 6.6035156,6.3867187 C 7.699962,8.4807467 4.3332536,8.6056079 4.9648437,10.771484 1.9825095,11.346937 3.883993,6.4162088 6.2209074,6.4892798 Z m 9.0820314,0.7402344 c 3.009446,1.4839068 -1.192613,5.1366139 -1.783186,2.5957042 0.296965,-1.0534775 -0.08542,-3.3312878 1.783186,-2.5957042 z m -8.6582033,0.96875 C 9.3947088,8.9016979 5.2933662,10.92821 5.1747251,10.177002 5.2506463,9.1253117 6.1872241,8.5405466 7.0273437,8.0957031 Z m 1.1816407,1.0625 C 9.7935415,10.148728 15.328967,9.5323911 12.138676,12.105473 10.120816,13.6557 7.5518383,12.656513 5.4882812,11.769531 4.6644858,10.327433 7.4705015,10.088737 8.2089844,9.1582031 Z m 5.3945316,1.2597659 c 2.804313,0.745782 -2.29048,2.202491 -3.104615,3.546151 -1.1413775,2.180408 -5.5081753,-1.539773 -4.3420219,-1.645687 2.0885994,0.989042 4.7667599,1.390775 6.5894819,-0.35189 0.43611,-0.415946 0.67894,-0.98367 0.857155,-1.548574 z M 5.03125,11.03125 c 1.0278986,1.221004 -1.2723332,0.03009 0,0 z m 10.099609,0.04687 c 2.864469,2.79436 -2.925609,4.0633 -5.070312,3.666016 1.481607,-1.484873 3.329598,-2.522474 5.070312,-3.666016 z M 4.4570312,11.449219 c 1.5634098,1.26341 2.6401364,3.555982 5.1035157,3.421875 -1.4571373,2.909878 -6.949262,0.157293 -5.7447283,-2.619594 l 0.2756673,-0.410492 z m 0.5625,-1.191406 c 1.4065019,1.841056 4.9125382,2.589907 7.1470768,3.953205 1.468329,0.653714 3.391548,2.379772 4.718156,2.171794 C 13.832939,15.033578 11.045549,13.145728 7.9260039,11.922802 6.9193385,11.438416 5.9312173,10.906319 5.0195312,10.257813 Z m 12.5078128,1.115234 c -1.346396,1.623011 0.07478,4.876949 -2.443516,5.57791 -3.379196,0.803079 -6.8139635,-0.389628 -10.21871,-0.430337 -1.6150012,0.29887 2.5319322,0.427803 3.1785562,0.544373 2.7358368,0.154899 6.0602258,1.297442 8.3769698,-0.644762 0.664918,-1.362877 0.830255,-4.137687 1.1067,-5.047184 z M 1.7324219,9.4160156 C 2.2833158,11.036951 4.7211664,12.607652 6.2896276,13.842872 6.8879492,15.230532 10.735603,14.42799 10.130366,14.18081 7.5578082,15.023842 5.6145143,13.147347 3.8147557,11.540079 3.0785029,10.875174 2.377824,10.169789 1.7324219,9.4160156 Z M 12.736328,3.0585938 C 9.8445075,5.0091384 6.1311994,6.0127331 2.6835966,5.5566402 2.0460994,6.1344193 5.7003925,5.9938735 6.5908919,5.722884 8.8303698,5.3690152 11.032126,4.5968788 12.888672,3.2753906 l -0.08787,-0.125047 z M 12.578125,4.4257812 C 10.187934,5.0115428 10.084428,8.3694716 7.513465,8.9677263 6.1895969,9.9579631 4.4609451,11.589655 4.0605469,12.919922 c 1.8291846,-1.594309 2.4100515,2.626609 4.3704757,2.916333 1.9210304,0.998374 4.7751674,2.758034 6.7248784,1.014493 1.056447,-1.571554 2.742852,-3.826188 2.71519,-5.426927 -1.103709,2.052216 -1.784325,4.973211 -4.106787,5.91868 C 11.444059,17.215925 9.1082537,16.264015 7.3789062,14.677734 6.4487262,13.907234 5.0133913,12.172226 5.0371591,11.778575 6.2618015,9.5374693 9.0344936,8.9478134 10.378895,6.904297 11.153797,3.7276574 14.100052,4.9942668 16.136671,5.8535152 16.988043,5.5022217 13.136951,4.6671468 12.578125,4.4257812 Z M 8.9765625,4.4375 C 6.730619,4.3479717 5.2252332,6.6660175 3.3820044,7.7046723 0.75029357,9.8666978 5.1821913,6.8409235 5.9752942,6.0794959 8.2098199,3.1973726 10.89751,5.84981 13.021238,7.3038344 14.226421,8.1122455 17.688567,8.0711238 14.466584,7.5201857 12.297366,7.1459351 10.986327,5.1701245 8.9765625,4.4375 Z M 16.152344,9.1484375 C 14.748823,11.525143 13.267553,14.08491 10.900133,15.601233 9.2475907,16.667925 6.0729094,14.158148 5.4492187,14.525384 7.305105,15.63704 10.281722,17.051616 12.089843,15.0664 c 1.79029,-1.630605 3.107169,-3.695826 4.292968,-5.7871091 l -0.132905,-0.07546 z M 5.7382812,14.521484 c 0.012345,0.01344 -0.00687,0.06412 0,0 z M 9.046875,3.3730469 C 7.1547525,3.2346557 5.753327,6.4189687 7.1230469,7.1835937 5.7633541,4.3382253 9.4644313,2.7314913 11.621094,4.0605469 c 1.581781,0.41028 3.969012,3.6172402 4.707028,2.6093752 C 14.133449,6.4459579 13.290831,3.7051693 10.908715,3.5872327 10.3013,3.4505997 9.6740585,3.288249 9.046875,3.3730469 Z m 3.785156,4.1953125 C 10.979641,6.973618 8.9214346,11.370697 11.144908,8.4614578 13.868189,6.0054363 17.014271,11.414299 14.15625,13.121094 11.649245,13.91861 9.6974388,11.334836 7.4591594,10.604546 6.1925699,9.8331459 3.4905407,9.3411751 6.3332105,10.425516 8.7627013,11.16442 10.69454,13.243969 13.21452,13.602372 16.674532,13.452999 15.951215,7.7856308 12.832031,7.5683594 Z m 2.197266,0.060547 c 1.661904,0.4714767 6.114386,-0.4610503 5.8819,1.7672649 -2.534916,2.8866667 -4.266126,0.6140087 -5.8819,-1.7672649 z M -1.3652344,10.693358 c 0.1815352,1.136297 1.6390194,2.312593 -0.026981,0.881379 -0.6544617,-0.187878 -0.035824,-0.585241 0.026981,-0.881379 z M 16.917969,9.8222656 c 0.750507,0.8595734 -1.064729,4.4464624 -0.775392,1.8671874 -1.659442,-1.142147 0.03374,-0.977117 0.775392,-1.8671874 z"
       transform="matrix(0.9475884,0,0,0.4243738,-6.1528811,1.8921457)"
       id="path73" />
    <path
       style="mix-blend-mode:color-burn;filter:url(#filter76-2)"
       d="M 13.238281,-1.7636719 C 10.664878,-2.0246254 10.300266,2.4224417 8.2552447,-0.24527871 4.7364582,-2.1591769 3.8816182,2.6918202 3.1176363,5.0416588 3.231039,7.0564045 0.06780687,7.1111618 0.01139891,9.5624205 -0.94367417,11.822366 0.06063155,14.323269 1.0313274,16.202275 c -0.71358017,2.705787 1.4550712,5.052538 4.0428913,5.459834 1.9852437,0.420949 4.8895919,-0.986629 2.9609344,-3.152331 2.3369239,-0.666901 3.9814639,2.417455 6.4160159,2.730468 1.769717,1.078066 3.369094,-0.04042 3.86228,-1.470718 1.508024,-0.946568 6.269684,-2.728649 3.233425,-4.624986 C 22.742557,13.152446 19.04254,10.12653 17.64378,11.344109 17.423366,13.01088 14.211439,15.82011 13.983514,12.676384 13.465215,10.922955 11.01412,8.3795217 11.092121,7.6646098 13.895396,7.2126579 17.109876,7.7222835 19.583984,6.1621094 19.216028,8.712157 23.499152,10.298227 23.011272,6.98395 21.766538,4.8887392 20.112375,2.8300897 18.277622,1.3641192 16.848074,0.05888214 15.257831,-1.5633616 13.238281,-1.7636719 Z M 13.25,-1.5 c 1.632123,0.1330464 4.908084,2.48261788 4.492203,3.2314495 C 15.389615,1.7085909 12.084851,0.92644007 11.110099,4.0196049 10.086191,5.2894321 11.003633,8.6764405 8.7861901,6.6983067 7.1371882,5.685361 9.3725775,2.7446128 10.015624,1.1835944 10.519349,-0.15769316 11.752286,-1.4125151 13.25,-1.5 Z M 7.0625,-0.44921875 C 8.3998711,-0.05999044 10.499575,1.5100079 7.8378321,0.9186928 6.2643404,0.23105086 3.3908575,4.0679372 4.6649297,1.1899396 5.0709773,0.29421086 6.0089251,-0.5983314 7.0625,-0.44921875 Z M 7.8886719,1.1835937 C 11.360434,0.57030528 7.701233,3.9420454 7.8974916,5.7753429 7.6272441,6.6223491 4.9977468,5.4351856 4.4947977,5.4715508 3.2877843,2.8330925 5.4078393,1.2696305 7.8886719,1.1835937 Z M 14.921875,1.8125 c 1.596289,0.3061922 0.466531,0.3911277 0.236324,1.0488281 2.001019,-1.6617505 4.43285,1.6155076 4.093723,3.2625139 C 16.562079,7.3801969 13.417472,7.0204331 10.52734,7.4628906 10.657368,5.0431101 11.86245,1.4333051 14.921875,1.8125 Z m 3.230469,0.1425781 c 1.676915,-0.196649 2.865388,4.5306672 1.333242,3.2126898 0.229455,-1.4947394 -3.917189,-3.418027 -1.333242,-3.2126898 z m 1.416015,0.8125 c 0.146739,-0.035508 0.289229,0.5035297 0,0 z M 3.9472656,3.6972656 C 4.5131651,4.6868682 3.5663218,7.500223 3.296875,5.4492187 3.4175785,4.8334188 3.6723508,4.2571071 3.9472656,3.6972656 Z M 20.4375,4.0976562 c 1.900275,0.786537 3.743508,5.6500643 0.302734,4.2089844 C 19.23731,6.441501 20.550524,5.8796666 20.4375,4.0976562 Z M 4.9667969,5.9375 C 7.609569,5.3471476 8.5329638,8.1852215 5.7940408,8.7553708 4.592426,10.490686 4.3832326,5.9755532 4.9667969,5.9375 Z M 4.1464844,6.2304687 C 4.5649612,7.3815341 4.9219281,11.636554 3.5468472,9.064889 3.4913136,8.1622658 2.599486,6.2365827 4.1464844,6.2304687 Z M 7.9453125,6.625 C 9.0974777,7.0690297 10.768622,7.8096996 8.5266488,7.8199905 6.9400887,8.4138445 7.7381933,7.7533053 7.9453125,6.625 Z M 3.0214844,6.63281 C 3.0934506,8.9365783 4.1741616,10.842618 2.1601478,12.588397 1.3055982,13.829916 1.2166457,17.055996 0.3298366,13.996914 -0.63266974,11.693632 0.08956207,8.8151468 1.7988281,7.0703125 2.1709563,6.8342725 2.6186837,6.7923938 3.0214844,6.63281 Z m 7.2265626,1.15625 c -0.167383,2.755094 0.674374,6.056433 3.232422,7.490235 -2.035613,1.385656 -4.8135071,4.022532 -6.2649165,0.527829 C 4.8637978,13.832377 6.7523024,11.241531 7.2773437,8.9140625 7.4382882,7.7931348 9.3650114,8.074812 10.248047,7.78906 Z m 0.275391,0.1953125 c 1.923432,1.753361 2.985721,4.2486975 3.998046,6.6035155 -2.537017,1.191296 -3.872153,-3.313704 -3.999897,-5.4275696 -0.02066,-0.3916517 -0.01808,-0.7843331 0.0019,-1.1759459 z M 7.1289062,8.4785156 C 6.6387125,9.7955131 5.8195385,14.566558 5.3123656,10.954395 4.4520451,9.3855342 5.8884775,8.9513716 7.1289062,8.4785156 Z m -2.34375,1.3320313 c 0.230433,1.0405981 1.4077246,5.1199781 0.064405,2.5630191 -0.1616148,-0.880574 -1.3152124,-2.0163 -0.064405,-2.5630191 z M 3.78125,10.732422 c 0.6954089,1.771843 2.3645572,3.451654 0.2072461,4.792642 C 2.3062933,18.524378 0.37680175,14.42052 2.3562243,12.772756 2.7453883,12.037799 3.224329,11.350157 3.78125,10.732422 Z m 14.560547,0.480469 c 1.561147,0.08155 4.272668,2.992004 2.658203,3.554687 -2.115378,-2.163427 -2.247963,1.901973 -3.226563,2.136672 -2.087195,-0.02388 -4.187099,-2.39387 -1.351991,-3.357715 1.190943,-0.43412 1.343438,-2.041686 1.920351,-2.333644 z M 5.7304687,13.496094 c 0.8030335,1.151684 -0.48011,0.329164 0,0 z m -0.2128906,0.548828 c 0.955482,1.16117 1.7181348,3.133492 1.9902344,4.300777 C 5.7196631,17.887356 3.5694389,15.394218 5.5175781,14.044922 Z m 14.3945309,0.388672 c 3.80225,0.586491 -2.215669,4.338378 -1.115234,1.285109 0.01392,-0.629354 0.454154,-1.232958 1.115234,-1.285109 z m -5.294921,0.408203 c 1.635777,2.034133 -1.910554,0.426699 0,0 z m 6.851562,0.570312 c 2.612131,1.822834 -2.130834,3.266605 -3.429688,4.146485 0.309061,-1.720684 0.570346,-2.606345 2.41493,-2.827946 0.559089,-0.244961 1.006792,-0.673949 1.014758,-1.318539 z m -7.771484,0.04297 c 2.343795,0.450162 2.019882,4.599446 3.894239,4.75355 -1.004423,2.641946 -4.618392,0.04792 -6.292906,-0.849481 -1.081826,-0.680329 -2.6142097,-1.484385 -0.531638,-1.994399 1.001597,-0.597773 1.955024,-1.271028 2.930305,-1.90967 z m -9.3671879,0.0332 c 0.1881591,2.888052 5.0807048,2.576667 3.7304688,5.359377 -2.184532,1.241595 -5.2467178,0.33793 -6.4702686,-1.774913 -0.5221471,-1.505639 -0.83985276,-3.691949 1.11445,-2.19871 0.9268868,0.127508 1.350351,-0.64752 1.6253498,-1.385754 z m 2.4238281,0.05469 c 0.5582534,0.966476 3.3444358,3.407866 1.0268671,2.38557 C 7.4317668,17.13626 7.0915244,16.340156 6.7539062,15.542969 Z m 8.6953128,0.757812 c 1.973743,0.681773 3.612002,0.997128 2.298828,3.333939 -1.624104,0.641483 -1.669104,-2.447607 -2.298828,-3.333939 z M 6.2519531,-0.27539063 c -3.7775392,0.054503 -6.99844273,2.80784483 -9.1136999,5.72017333 -2.0758873,2.0554677 -0.1440892,4.6514133 0.6597844,6.2553303 -1.3455462,2.102452 -1.4388037,5.747363 1.43300179,6.554469 3.65556011,1.317199 7.64651741,1.58958 11.49837361,1.38562 2.500117,-0.08949 5.572976,-2.435177 4.227618,-5.173405 1.62253,2.618762 4.056373,0.191263 2.962469,-2.14403 C 16.391289,9.9476892 21.932152,11.429664 21.388215,8.5871363 19.328557,6.4723898 15.268147,8.9107028 13.889762,6.0740977 11.914957,3.416908 9.9664282,-0.04947919 6.2519531,-0.27539063 Z m -0.025391,0.26367188 C 9.97701,0.27117263 11.905137,3.879592 13.909054,6.5683593 15.938268,8.2094693 8.8872272,6.4722008 12.627227,7.4510076 14.666558,6.8034786 17.010564,9.8754265 16.66017,10.761119 14.077064,10.982361 11.790436,10.66561 9.7558185,9.1747989 6.4950776,8.7079583 3.0924315,10.00733 -0.0859375,8.9355469 1.67279,8.1887648 3.3848547,4.5820208 0.1622567,4.9787546 -2.0590475,5.8161025 -0.72041121,8.4974203 -0.94306307,9.5054531 -2.2782699,13.158389 -4.886901,7.0561015 -2.6387023,5.5891772 -0.59709259,2.7801629 2.5714389,0.03696932 6.2265621,-0.01171875 Z M 0.50976562,5.1679687 C 4.0637255,5.0203057 -1.0193824,11.002744 -0.96166254,7.5018546 -0.97762028,6.5444423 -0.52122836,5.3902908 0.50976562,5.1679687 Z M -0.28515625,9.140625 C 3.1802958,10.463408 6.9904481,8.6364309 10.5,9.6699219 13.189599,11.361332 8.2744003,10.307639 7.0812361,10.544794 4.3234515,10.476571 1.5658589,10.37884 -1.1933594,10.37692 -0.99142926,9.8986135 -0.61292729,9.5313254 -0.28515625,9.140625 Z m -0.82226565,1.501953 c 4.3494456,0.03145 8.6964841,0.192088 13.0449219,0.26951 1.49344,0.970606 1.743652,1.826126 -0.29463,2.121222 -2.1057812,1.640162 -4.9784906,1.62231 -7.5400701,1.706706 -2.234067,-0.247751 -4.64756639,-1.833462 -5.2102218,-4.097438 z m 13.4609379,0.287109 c 2.048696,0.464796 5.803641,-1.0823854 5.407088,2.252631 0.99291,3.29632 -3.374097,2.153924 -3.031641,-0.03011 -0.779538,-0.748693 -1.540905,-1.308472 -2.375447,-2.222517 z m -14.1777347,0.609375 c 2.19701833,1.989403 4.5857566,4.054916 7.6299272,4.532645 2.9803492,0.2448 4.9838985,-3.34753 7.9970255,-2.327564 2.514654,1.448587 0.656385,4.931412 -1.705078,5.326171 -3.4744939,0.826606 -7.1360674,0.243807 -10.602464,-0.391981 -2.28131872,-0.330558 -5.0766646,-1.775202 -4.2948106,-4.562905 0.168366,-0.908722 0.5651381,-1.755458 0.9753999,-2.576366 z m 14.9160157,1.160156 c 1.121175,0.277344 1.228721,1.27269 -0.129234,0.576 -1.539242,0.212849 -2.286135,0.448936 -0.322513,-0.415448 z m 0.783203,0.07422 c 1.023668,0.232574 0.960364,2.026773 0,0 z m -3.9726562,1.470703 c -1.5703465,1.835397 -5.696819,1.777202 -6.4406214,0.6943 2.1582221,0.218922 4.3532358,-0.154904 6.4406214,-0.6943 z M 2.4121094,14.519531 2.8984375,14.75 Z M 0.66210937,0.76367187 C 1.8156669,2.809459 5.6804756,2.8986233 8.0071715,2.1290605 10.443636,1.3041413 13.096619,0.52616418 15.494141,1.8964839 17.093337,2.3346322 17.847317,3.690181 17.248045,4.9101596 19.073032,2.6131031 15.393845,1.5044376 13.635008,0.99814532 10.763923,0.29211861 8.0876306,2.3998764 5.2001107,2.3147649 3.5590452,2.3914671 1.9021074,1.8516306 0.66210937,0.76367187 Z M 11.240234,0.50976562 C 8.6782809,0.73616954 7.1097473,3.4557959 6.7091333,5.7669316 5.0802414,6.4259374 1.4918068,8.9892328 3.90625,11.095703 c -0.1534652,0.887359 -1.4604151,3.370298 0.7556909,4.172386 1.8043315,1.774756 4.1467999,1.093082 5.6326151,-0.2734 1.710786,0.432899 4.670851,-0.889498 5.337982,-1.027315 -0.385632,1.086444 -2.767345,3.273855 -0.533195,1.437342 1.503722,-2.323188 2.963084,-4.878296 1.678035,-7.514091 C 15.416494,5.3889379 13.169909,7.58435 13.642578,9.6660156 12.831332,10.468399 8.9958888,9.3122473 8.8007813,8.8007813 10.570908,7.4510907 13.485147,7.5787311 14.581361,5.5169624 15.63666,3.1595259 13.937511,0.27368501 11.240234,0.50976562 Z m -0.002,0.265625 C 14.115948,0.4177585 15.653229,4.2111434 13.837839,6.2265625 11.831391,6.8446122 9.5364121,8.692617 7.7001649,8.4761867 6.2981485,7.6426181 11.654875,6.1270376 8.5057062,5.8546161 5.2786821,6.7343175 8.278515,2.2527123 9.5625,1.3183594 10.090256,1.0805478 10.643425,0.76748115 11.238234,0.77539062 Z M 9.3144531,6.2675781 C 8.4554692,7.6754847 5.7924648,8.2236949 7.1810745,6.2555449 7.8818842,6.1216209 8.6214486,6.0389063 9.3144531,6.2675781 Z M 6.6035156,6.3867187 C 7.699962,8.4807467 4.3332536,8.6056079 4.9648437,10.771484 1.9825095,11.346937 3.883993,6.4162088 6.2209074,6.4892798 Z m 9.0820314,0.7402344 c 3.009446,1.4839068 -1.192613,5.1366139 -1.783186,2.5957042 0.296965,-1.0534775 -0.08542,-3.3312878 1.783186,-2.5957042 z m -8.6582033,0.96875 C 9.3947088,8.9016979 5.2933662,10.92821 5.1747251,10.177002 5.2506463,9.1253117 6.1872241,8.5405466 7.0273437,8.0957031 Z m 1.1816407,1.0625 C 9.7935415,10.148728 15.328967,9.5323911 12.138676,12.105473 10.120816,13.6557 7.5518383,12.656513 5.4882812,11.769531 4.6644858,10.327433 7.4705015,10.088737 8.2089844,9.1582031 Z m 5.3945316,1.2597659 c 2.804313,0.745782 -2.29048,2.202491 -3.104615,3.546151 -1.1413775,2.180408 -5.5081753,-1.539773 -4.3420219,-1.645687 2.0885994,0.989042 4.7667599,1.390775 6.5894819,-0.35189 0.43611,-0.415946 0.67894,-0.98367 0.857155,-1.548574 z M 5.03125,11.03125 c 1.0278986,1.221004 -1.2723332,0.03009 0,0 z m 10.099609,0.04687 c 2.864469,2.79436 -2.925609,4.0633 -5.070312,3.666016 1.481607,-1.484873 3.329598,-2.522474 5.070312,-3.666016 z M 4.4570312,11.449219 c 1.5634098,1.26341 2.6401364,3.555982 5.1035157,3.421875 -1.4571373,2.909878 -6.949262,0.157293 -5.7447283,-2.619594 l 0.2756673,-0.410492 z m 0.5625,-1.191406 c 1.4065019,1.841056 4.9125382,2.589907 7.1470768,3.953205 1.468329,0.653714 3.391548,2.379772 4.718156,2.171794 C 13.832939,15.033578 11.045549,13.145728 7.9260039,11.922802 6.9193385,11.438416 5.9312173,10.906319 5.0195312,10.257813 Z m 12.5078128,1.115234 c -1.346396,1.623011 0.07478,4.876949 -2.443516,5.57791 -3.379196,0.803079 -6.8139635,-0.389628 -10.21871,-0.430337 -1.6150012,0.29887 2.5319322,0.427803 3.1785562,0.544373 2.7358368,0.154899 6.0602258,1.297442 8.3769698,-0.644762 0.664918,-1.362877 0.830255,-4.137687 1.1067,-5.047184 z M 1.7324219,9.4160156 C 2.2833158,11.036951 4.7211664,12.607652 6.2896276,13.842872 6.8879492,15.230532 10.735603,14.42799 10.130366,14.18081 7.5578082,15.023842 5.6145143,13.147347 3.8147557,11.540079 3.0785029,10.875174 2.377824,10.169789 1.7324219,9.4160156 Z M 12.736328,3.0585938 C 9.8445075,5.0091384 6.1311994,6.0127331 2.6835966,5.5566402 2.0460994,6.1344193 5.7003925,5.9938735 6.5908919,5.722884 8.8303698,5.3690152 11.032126,4.5968788 12.888672,3.2753906 l -0.08787,-0.125047 z M 12.578125,4.4257812 C 10.187934,5.0115428 10.084428,8.3694716 7.513465,8.9677263 6.1895969,9.9579631 4.4609451,11.589655 4.0605469,12.919922 c 1.8291846,-1.594309 2.4100515,2.626609 4.3704757,2.916333 1.9210304,0.998374 4.7751674,2.758034 6.7248784,1.014493 1.056447,-1.571554 2.742852,-3.826188 2.71519,-5.426927 -1.103709,2.052216 -1.784325,4.973211 -4.106787,5.91868 C 11.444059,17.215925 9.1082537,16.264015 7.3789062,14.677734 6.4487262,13.907234 5.0133913,12.172226 5.0371591,11.778575 6.2618015,9.5374693 9.0344936,8.9478134 10.378895,6.904297 11.153797,3.7276574 14.100052,4.9942668 16.136671,5.8535152 16.988043,5.5022217 13.136951,4.6671468 12.578125,4.4257812 Z M 8.9765625,4.4375 C 6.730619,4.3479717 5.2252332,6.6660175 3.3820044,7.7046723 0.75029357,9.8666978 5.1821913,6.8409235 5.9752942,6.0794959 8.2098199,3.1973726 10.89751,5.84981 13.021238,7.3038344 14.226421,8.1122455 17.688567,8.0711238 14.466584,7.5201857 12.297366,7.1459351 10.986327,5.1701245 8.9765625,4.4375 Z M 16.152344,9.1484375 C 14.748823,11.525143 13.267553,14.08491 10.900133,15.601233 9.2475907,16.667925 6.0729094,14.158148 5.4492187,14.525384 7.305105,15.63704 10.281722,17.051616 12.089843,15.0664 c 1.79029,-1.630605 3.107169,-3.695826 4.292968,-5.7871091 l -0.132905,-0.07546 z M 5.7382812,14.521484 c 0.012345,0.01344 -0.00687,0.06412 0,0 z M 9.046875,3.3730469 C 7.1547525,3.2346557 5.753327,6.4189687 7.1230469,7.1835937 5.7633541,4.3382253 9.4644313,2.7314913 11.621094,4.0605469 c 1.581781,0.41028 3.969012,3.6172402 4.707028,2.6093752 C 14.133449,6.4459579 13.290831,3.7051693 10.908715,3.5872327 10.3013,3.4505997 9.6740585,3.288249 9.046875,3.3730469 Z m 3.785156,4.1953125 C 10.979641,6.973618 8.9214346,11.370697 11.144908,8.4614578 13.868189,6.0054363 17.014271,11.414299 14.15625,13.121094 11.649245,13.91861 9.6974388,11.334836 7.4591594,10.604546 6.1925699,9.8331459 3.4905407,9.3411751 6.3332105,10.425516 8.7627013,11.16442 10.69454,13.243969 13.21452,13.602372 16.674532,13.452999 15.951215,7.7856308 12.832031,7.5683594 Z m 2.197266,0.060547 c 1.661904,0.4714767 6.114386,-0.4610503 5.8819,1.7672649 -2.534916,2.8866667 -4.266126,0.6140087 -5.8819,-1.7672649 z M -1.3652344,10.693358 c 0.1815352,1.136297 1.6390194,2.312593 -0.026981,0.881379 -0.6544617,-0.187878 -0.035824,-0.585241 0.026981,-0.881379 z M 16.917969,9.8222656 c 0.750507,0.8595734 -1.064729,4.4464624 -0.775392,1.8671874 -1.659442,-1.142147 0.03374,-0.977117 0.775392,-1.8671874 z"
       transform="matrix(0.35837833,0.37526876,-0.19865387,0.14648755,9.5305472,1.7785809)"
       id="path73-8" />
    <path
       style="mix-blend-mode:color-burn;filter:url(#filter76-2-2)"
       d="M 13.238281,-1.7636719 C 10.664878,-2.0246254 10.300266,2.4224417 8.2552447,-0.24527871 4.7364582,-2.1591769 3.8816182,2.6918202 3.1176363,5.0416588 3.231039,7.0564045 0.06780687,7.1111618 0.01139891,9.5624205 -0.94367417,11.822366 0.06063155,14.323269 1.0313274,16.202275 c -0.71358017,2.705787 1.4550712,5.052538 4.0428913,5.459834 1.9852437,0.420949 4.8895919,-0.986629 2.9609344,-3.152331 2.3369239,-0.666901 3.9814639,2.417455 6.4160159,2.730468 1.769717,1.078066 3.369094,-0.04042 3.86228,-1.470718 1.508024,-0.946568 6.269684,-2.728649 3.233425,-4.624986 C 22.742557,13.152446 19.04254,10.12653 17.64378,11.344109 17.423366,13.01088 14.211439,15.82011 13.983514,12.676384 13.465215,10.922955 11.01412,8.3795217 11.092121,7.6646098 13.895396,7.2126579 17.109876,7.7222835 19.583984,6.1621094 19.216028,8.712157 23.499152,10.298227 23.011272,6.98395 21.766538,4.8887392 20.112375,2.8300897 18.277622,1.3641192 16.848074,0.05888214 15.257831,-1.5633616 13.238281,-1.7636719 Z M 13.25,-1.5 c 1.632123,0.1330464 4.908084,2.48261788 4.492203,3.2314495 C 15.389615,1.7085909 12.084851,0.92644007 11.110099,4.0196049 10.086191,5.2894321 11.003633,8.6764405 8.7861901,6.6983067 7.1371882,5.685361 9.3725775,2.7446128 10.015624,1.1835944 10.519349,-0.15769316 11.752286,-1.4125151 13.25,-1.5 Z M 7.0625,-0.44921875 C 8.3998711,-0.05999044 10.499575,1.5100079 7.8378321,0.9186928 6.2643404,0.23105086 3.3908575,4.0679372 4.6649297,1.1899396 5.0709773,0.29421086 6.0089251,-0.5983314 7.0625,-0.44921875 Z M 7.8886719,1.1835937 C 11.360434,0.57030528 7.701233,3.9420454 7.8974916,5.7753429 7.6272441,6.6223491 4.9977468,5.4351856 4.4947977,5.4715508 3.2877843,2.8330925 5.4078393,1.2696305 7.8886719,1.1835937 Z M 14.921875,1.8125 c 1.596289,0.3061922 0.466531,0.3911277 0.236324,1.0488281 2.001019,-1.6617505 4.43285,1.6155076 4.093723,3.2625139 C 16.562079,7.3801969 13.417472,7.0204331 10.52734,7.4628906 10.657368,5.0431101 11.86245,1.4333051 14.921875,1.8125 Z m 3.230469,0.1425781 c 1.676915,-0.196649 2.865388,4.5306672 1.333242,3.2126898 0.229455,-1.4947394 -3.917189,-3.418027 -1.333242,-3.2126898 z m 1.416015,0.8125 c 0.146739,-0.035508 0.289229,0.5035297 0,0 z M 3.9472656,3.6972656 C 4.5131651,4.6868682 3.5663218,7.500223 3.296875,5.4492187 3.4175785,4.8334188 3.6723508,4.2571071 3.9472656,3.6972656 Z M 20.4375,4.0976562 c 1.900275,0.786537 3.743508,5.6500643 0.302734,4.2089844 C 19.23731,6.441501 20.550524,5.8796666 20.4375,4.0976562 Z M 4.9667969,5.9375 C 7.609569,5.3471476 8.5329638,8.1852215 5.7940408,8.7553708 4.592426,10.490686 4.3832326,5.9755532 4.9667969,5.9375 Z M 4.1464844,6.2304687 C 4.5649612,7.3815341 4.9219281,11.636554 3.5468472,9.064889 3.4913136,8.1622658 2.599486,6.2365827 4.1464844,6.2304687 Z M 7.9453125,6.625 C 9.0974777,7.0690297 10.768622,7.8096996 8.5266488,7.8199905 6.9400887,8.4138445 7.7381933,7.7533053 7.9453125,6.625 Z M 3.0214844,6.63281 C 3.0934506,8.9365783 4.1741616,10.842618 2.1601478,12.588397 1.3055982,13.829916 1.2166457,17.055996 0.3298366,13.996914 -0.63266974,11.693632 0.08956207,8.8151468 1.7988281,7.0703125 2.1709563,6.8342725 2.6186837,6.7923938 3.0214844,6.63281 Z m 7.2265626,1.15625 c -0.167383,2.755094 0.674374,6.056433 3.232422,7.490235 -2.035613,1.385656 -4.8135071,4.022532 -6.2649165,0.527829 C 4.8637978,13.832377 6.7523024,11.241531 7.2773437,8.9140625 7.4382882,7.7931348 9.3650114,8.074812 10.248047,7.78906 Z m 0.275391,0.1953125 c 1.923432,1.753361 2.985721,4.2486975 3.998046,6.6035155 -2.537017,1.191296 -3.872153,-3.313704 -3.999897,-5.4275696 -0.02066,-0.3916517 -0.01808,-0.7843331 0.0019,-1.1759459 z M 7.1289062,8.4785156 C 6.6387125,9.7955131 5.8195385,14.566558 5.3123656,10.954395 4.4520451,9.3855342 5.8884775,8.9513716 7.1289062,8.4785156 Z m -2.34375,1.3320313 c 0.230433,1.0405981 1.4077246,5.1199781 0.064405,2.5630191 -0.1616148,-0.880574 -1.3152124,-2.0163 -0.064405,-2.5630191 z M 3.78125,10.732422 c 0.6954089,1.771843 2.3645572,3.451654 0.2072461,4.792642 C 2.3062933,18.524378 0.37680175,14.42052 2.3562243,12.772756 2.7453883,12.037799 3.224329,11.350157 3.78125,10.732422 Z m 14.560547,0.480469 c 1.561147,0.08155 4.272668,2.992004 2.658203,3.554687 -2.115378,-2.163427 -2.247963,1.901973 -3.226563,2.136672 -2.087195,-0.02388 -4.187099,-2.39387 -1.351991,-3.357715 1.190943,-0.43412 1.343438,-2.041686 1.920351,-2.333644 z M 5.7304687,13.496094 c 0.8030335,1.151684 -0.48011,0.329164 0,0 z m -0.2128906,0.548828 c 0.955482,1.16117 1.7181348,3.133492 1.9902344,4.300777 C 5.7196631,17.887356 3.5694389,15.394218 5.5175781,14.044922 Z m 14.3945309,0.388672 c 3.80225,0.586491 -2.215669,4.338378 -1.115234,1.285109 0.01392,-0.629354 0.454154,-1.232958 1.115234,-1.285109 z m -5.294921,0.408203 c 1.635777,2.034133 -1.910554,0.426699 0,0 z m 6.851562,0.570312 c 2.612131,1.822834 -2.130834,3.266605 -3.429688,4.146485 0.309061,-1.720684 0.570346,-2.606345 2.41493,-2.827946 0.559089,-0.244961 1.006792,-0.673949 1.014758,-1.318539 z m -7.771484,0.04297 c 2.343795,0.450162 2.019882,4.599446 3.894239,4.75355 -1.004423,2.641946 -4.618392,0.04792 -6.292906,-0.849481 -1.081826,-0.680329 -2.6142097,-1.484385 -0.531638,-1.994399 1.001597,-0.597773 1.955024,-1.271028 2.930305,-1.90967 z m -9.3671879,0.0332 c 0.1881591,2.888052 5.0807048,2.576667 3.7304688,5.359377 -2.184532,1.241595 -5.2467178,0.33793 -6.4702686,-1.774913 -0.5221471,-1.505639 -0.83985276,-3.691949 1.11445,-2.19871 0.9268868,0.127508 1.350351,-0.64752 1.6253498,-1.385754 z m 2.4238281,0.05469 c 0.5582534,0.966476 3.3444358,3.407866 1.0268671,2.38557 C 7.4317668,17.13626 7.0915244,16.340156 6.7539062,15.542969 Z m 8.6953128,0.757812 c 1.973743,0.681773 3.612002,0.997128 2.298828,3.333939 -1.624104,0.641483 -1.669104,-2.447607 -2.298828,-3.333939 z M 6.2519531,-0.27539063 c -3.7775392,0.054503 -6.99844273,2.80784483 -9.1136999,5.72017333 -2.0758873,2.0554677 -0.1440892,4.6514133 0.6597844,6.2553303 -1.3455462,2.102452 -1.4388037,5.747363 1.43300179,6.554469 3.65556011,1.317199 7.64651741,1.58958 11.49837361,1.38562 2.500117,-0.08949 5.572976,-2.435177 4.227618,-5.173405 1.62253,2.618762 4.056373,0.191263 2.962469,-2.14403 C 16.391289,9.9476892 21.932152,11.429664 21.388215,8.5871363 19.328557,6.4723898 15.268147,8.9107028 13.889762,6.0740977 11.914957,3.416908 9.9664282,-0.04947919 6.2519531,-0.27539063 Z m -0.025391,0.26367188 C 9.97701,0.27117263 11.905137,3.879592 13.909054,6.5683593 15.938268,8.2094693 8.8872272,6.4722008 12.627227,7.4510076 14.666558,6.8034786 17.010564,9.8754265 16.66017,10.761119 14.077064,10.982361 11.790436,10.66561 9.7558185,9.1747989 6.4950776,8.7079583 3.0924315,10.00733 -0.0859375,8.9355469 1.67279,8.1887648 3.3848547,4.5820208 0.1622567,4.9787546 -2.0590475,5.8161025 -0.72041121,8.4974203 -0.94306307,9.5054531 -2.2782699,13.158389 -4.886901,7.0561015 -2.6387023,5.5891772 -0.59709259,2.7801629 2.5714389,0.03696932 6.2265621,-0.01171875 Z M 0.50976562,5.1679687 C 4.0637255,5.0203057 -1.0193824,11.002744 -0.96166254,7.5018546 -0.97762028,6.5444423 -0.52122836,5.3902908 0.50976562,5.1679687 Z M -0.28515625,9.140625 C 3.1802958,10.463408 6.9904481,8.6364309 10.5,9.6699219 13.189599,11.361332 8.2744003,10.307639 7.0812361,10.544794 4.3234515,10.476571 1.5658589,10.37884 -1.1933594,10.37692 -0.99142926,9.8986135 -0.61292729,9.5313254 -0.28515625,9.140625 Z m -0.82226565,1.501953 c 4.3494456,0.03145 8.6964841,0.192088 13.0449219,0.26951 1.49344,0.970606 1.743652,1.826126 -0.29463,2.121222 -2.1057812,1.640162 -4.9784906,1.62231 -7.5400701,1.706706 -2.234067,-0.247751 -4.64756639,-1.833462 -5.2102218,-4.097438 z m 13.4609379,0.287109 c 2.048696,0.464796 5.803641,-1.0823854 5.407088,2.252631 0.99291,3.29632 -3.374097,2.153924 -3.031641,-0.03011 -0.779538,-0.748693 -1.540905,-1.308472 -2.375447,-2.222517 z m -14.1777347,0.609375 c 2.19701833,1.989403 4.5857566,4.054916 7.6299272,4.532645 2.9803492,0.2448 4.9838985,-3.34753 7.9970255,-2.327564 2.514654,1.448587 0.656385,4.931412 -1.705078,5.326171 -3.4744939,0.826606 -7.1360674,0.243807 -10.602464,-0.391981 -2.28131872,-0.330558 -5.0766646,-1.775202 -4.2948106,-4.562905 0.168366,-0.908722 0.5651381,-1.755458 0.9753999,-2.576366 z m 14.9160157,1.160156 c 1.121175,0.277344 1.228721,1.27269 -0.129234,0.576 -1.539242,0.212849 -2.286135,0.448936 -0.322513,-0.415448 z m 0.783203,0.07422 c 1.023668,0.232574 0.960364,2.026773 0,0 z m -3.9726562,1.470703 c -1.5703465,1.835397 -5.696819,1.777202 -6.4406214,0.6943 2.1582221,0.218922 4.3532358,-0.154904 6.4406214,-0.6943 z M 2.4121094,14.519531 2.8984375,14.75 Z M 0.66210937,0.76367187 C 1.8156669,2.809459 5.6804756,2.8986233 8.0071715,2.1290605 10.443636,1.3041413 13.096619,0.52616418 15.494141,1.8964839 17.093337,2.3346322 17.847317,3.690181 17.248045,4.9101596 19.073032,2.6131031 15.393845,1.5044376 13.635008,0.99814532 10.763923,0.29211861 8.0876306,2.3998764 5.2001107,2.3147649 3.5590452,2.3914671 1.9021074,1.8516306 0.66210937,0.76367187 Z M 11.240234,0.50976562 C 8.6782809,0.73616954 7.1097473,3.4557959 6.7091333,5.7669316 5.0802414,6.4259374 1.4918068,8.9892328 3.90625,11.095703 c -0.1534652,0.887359 -1.4604151,3.370298 0.7556909,4.172386 1.8043315,1.774756 4.1467999,1.093082 5.6326151,-0.2734 1.710786,0.432899 4.670851,-0.889498 5.337982,-1.027315 -0.385632,1.086444 -2.767345,3.273855 -0.533195,1.437342 1.503722,-2.323188 2.963084,-4.878296 1.678035,-7.514091 C 15.416494,5.3889379 13.169909,7.58435 13.642578,9.6660156 12.831332,10.468399 8.9958888,9.3122473 8.8007813,8.8007813 10.570908,7.4510907 13.485147,7.5787311 14.581361,5.5169624 15.63666,3.1595259 13.937511,0.27368501 11.240234,0.50976562 Z m -0.002,0.265625 C 14.115948,0.4177585 15.653229,4.2111434 13.837839,6.2265625 11.831391,6.8446122 9.5364121,8.692617 7.7001649,8.4761867 6.2981485,7.6426181 11.654875,6.1270376 8.5057062,5.8546161 5.2786821,6.7343175 8.278515,2.2527123 9.5625,1.3183594 10.090256,1.0805478 10.643425,0.76748115 11.238234,0.77539062 Z M 9.3144531,6.2675781 C 8.4554692,7.6754847 5.7924648,8.2236949 7.1810745,6.2555449 7.8818842,6.1216209 8.6214486,6.0389063 9.3144531,6.2675781 Z M 6.6035156,6.3867187 C 7.699962,8.4807467 4.3332536,8.6056079 4.9648437,10.771484 1.9825095,11.346937 3.883993,6.4162088 6.2209074,6.4892798 Z m 9.0820314,0.7402344 c 3.009446,1.4839068 -1.192613,5.1366139 -1.783186,2.5957042 0.296965,-1.0534775 -0.08542,-3.3312878 1.783186,-2.5957042 z m -8.6582033,0.96875 C 9.3947088,8.9016979 5.2933662,10.92821 5.1747251,10.177002 5.2506463,9.1253117 6.1872241,8.5405466 7.0273437,8.0957031 Z m 1.1816407,1.0625 C 9.7935415,10.148728 15.328967,9.5323911 12.138676,12.105473 10.120816,13.6557 7.5518383,12.656513 5.4882812,11.769531 4.6644858,10.327433 7.4705015,10.088737 8.2089844,9.1582031 Z m 5.3945316,1.2597659 c 2.804313,0.745782 -2.29048,2.202491 -3.104615,3.546151 -1.1413775,2.180408 -5.5081753,-1.539773 -4.3420219,-1.645687 2.0885994,0.989042 4.7667599,1.390775 6.5894819,-0.35189 0.43611,-0.415946 0.67894,-0.98367 0.857155,-1.548574 z M 5.03125,11.03125 c 1.0278986,1.221004 -1.2723332,0.03009 0,0 z m 10.099609,0.04687 c 2.864469,2.79436 -2.925609,4.0633 -5.070312,3.666016 1.481607,-1.484873 3.329598,-2.522474 5.070312,-3.666016 z M 4.4570312,11.449219 c 1.5634098,1.26341 2.6401364,3.555982 5.1035157,3.421875 -1.4571373,2.909878 -6.949262,0.157293 -5.7447283,-2.619594 l 0.2756673,-0.410492 z m 0.5625,-1.191406 c 1.4065019,1.841056 4.9125382,2.589907 7.1470768,3.953205 1.468329,0.653714 3.391548,2.379772 4.718156,2.171794 C 13.832939,15.033578 11.045549,13.145728 7.9260039,11.922802 6.9193385,11.438416 5.9312173,10.906319 5.0195312,10.257813 Z m 12.5078128,1.115234 c -1.346396,1.623011 0.07478,4.876949 -2.443516,5.57791 -3.379196,0.803079 -6.8139635,-0.389628 -10.21871,-0.430337 -1.6150012,0.29887 2.5319322,0.427803 3.1785562,0.544373 2.7358368,0.154899 6.0602258,1.297442 8.3769698,-0.644762 0.664918,-1.362877 0.830255,-4.137687 1.1067,-5.047184 z M 1.7324219,9.4160156 C 2.2833158,11.036951 4.7211664,12.607652 6.2896276,13.842872 6.8879492,15.230532 10.735603,14.42799 10.130366,14.18081 7.5578082,15.023842 5.6145143,13.147347 3.8147557,11.540079 3.0785029,10.875174 2.377824,10.169789 1.7324219,9.4160156 Z M 12.736328,3.0585938 C 9.8445075,5.0091384 6.1311994,6.0127331 2.6835966,5.5566402 2.0460994,6.1344193 5.7003925,5.9938735 6.5908919,5.722884 8.8303698,5.3690152 11.032126,4.5968788 12.888672,3.2753906 l -0.08787,-0.125047 z M 12.578125,4.4257812 C 10.187934,5.0115428 10.084428,8.3694716 7.513465,8.9677263 6.1895969,9.9579631 4.4609451,11.589655 4.0605469,12.919922 c 1.8291846,-1.594309 2.4100515,2.626609 4.3704757,2.916333 1.9210304,0.998374 4.7751674,2.758034 6.7248784,1.014493 1.056447,-1.571554 2.742852,-3.826188 2.71519,-5.426927 -1.103709,2.052216 -1.784325,4.973211 -4.106787,5.91868 C 11.444059,17.215925 9.1082537,16.264015 7.3789062,14.677734 6.4487262,13.907234 5.0133913,12.172226 5.0371591,11.778575 6.2618015,9.5374693 9.0344936,8.9478134 10.378895,6.904297 11.153797,3.7276574 14.100052,4.9942668 16.136671,5.8535152 16.988043,5.5022217 13.136951,4.6671468 12.578125,4.4257812 Z M 8.9765625,4.4375 C 6.730619,4.3479717 5.2252332,6.6660175 3.3820044,7.7046723 0.75029357,9.8666978 5.1821913,6.8409235 5.9752942,6.0794959 8.2098199,3.1973726 10.89751,5.84981 13.021238,7.3038344 14.226421,8.1122455 17.688567,8.0711238 14.466584,7.5201857 12.297366,7.1459351 10.986327,5.1701245 8.9765625,4.4375 Z M 16.152344,9.1484375 C 14.748823,11.525143 13.267553,14.08491 10.900133,15.601233 9.2475907,16.667925 6.0729094,14.158148 5.4492187,14.525384 7.305105,15.63704 10.281722,17.051616 12.089843,15.0664 c 1.79029,-1.630605 3.107169,-3.695826 4.292968,-5.7871091 l -0.132905,-0.07546 z M 5.7382812,14.521484 c 0.012345,0.01344 -0.00687,0.06412 0,0 z M 9.046875,3.3730469 C 7.1547525,3.2346557 5.753327,6.4189687 7.1230469,7.1835937 5.7633541,4.3382253 9.4644313,2.7314913 11.621094,4.0605469 c 1.581781,0.41028 3.969012,3.6172402 4.707028,2.6093752 C 14.133449,6.4459579 13.290831,3.7051693 10.908715,3.5872327 10.3013,3.4505997 9.6740585,3.288249 9.046875,3.3730469 Z m 3.785156,4.1953125 C 10.979641,6.973618 8.9214346,11.370697 11.144908,8.4614578 13.868189,6.0054363 17.014271,11.414299 14.15625,13.121094 11.649245,13.91861 9.6974388,11.334836 7.4591594,10.604546 6.1925699,9.8331459 3.4905407,9.3411751 6.3332105,10.425516 8.7627013,11.16442 10.69454,13.243969 13.21452,13.602372 16.674532,13.452999 15.951215,7.7856308 12.832031,7.5683594 Z m 2.197266,0.060547 c 1.661904,0.4714767 6.114386,-0.4610503 5.8819,1.7672649 -2.534916,2.8866667 -4.266126,0.6140087 -5.8819,-1.7672649 z M -1.3652344,10.693358 c 0.1815352,1.136297 1.6390194,2.312593 -0.026981,0.881379 -0.6544617,-0.187878 -0.035824,-0.585241 0.026981,-0.881379 z M 16.917969,9.8222656 c 0.750507,0.8595734 -1.064729,4.4464624 -0.775392,1.8671874 -1.659442,-1.142147 0.03374,-0.977117 0.775392,-1.8671874 z"
       transform="matrix(0.35837833,0.37526876,-0.19865387,0.14648755,5.5693394,7.5389526)"
       id="path73-8-7" />
  </g>
</svg>
